<svg xmlns="http://www.w3.org/2000/svg" xmlns:svg="http://www.w3.org/2000/svg" xmlns:xlink="http://www.w3.org/1999/xlink" id="Layer_1" width="100%" height="100%" x="0" y="0" enable-background="new 0 0 372.825 346.286" version="1.1" viewBox="0 0 322.149 277.348" xml:space="preserve"><metadata id="metadata3225"/><defs id="defs3223"><pattern id="pattern3227" patternTransform="translate(-20.823001,-34.468998)" xlink:href="#_x31_0_dpi_30_x25_"/></defs><pattern id="_x31_0_dpi_30_x25_" width="28.8" height="28.801" x="482" y="780" overflow="visible" patternUnits="userSpaceOnUse" viewBox="2.16 -30.961 28.8 28.801"><g id="g3135"><polygon id="polygon3137" fill="none" points="2.16 -30.961 30.96 -30.961 30.96 -2.16 2.16 -2.16"/><g id="g3139"><path id="path3141" fill="#231F20" d="M30.96,0c1.192,0,2.159-0.967,2.159-2.16c0-1.193-0.968-2.16-2.159-2.16c-1.193,0-2.16,0.967-2.16,2.16 C28.8-0.967,29.767,0,30.96,0z"/><path id="path3143" fill="#231F20" d="M16.56,0c1.192,0,2.16-0.967,2.16-2.16c0-1.193-0.968-2.16-2.16-2.16c-1.193,0-2.16,0.967-2.16,2.16 C14.4-0.967,15.367,0,16.56,0z"/><path id="path3145" fill="#231F20" d="M30.96-14.4c1.192,0,2.159-0.967,2.159-2.16c0-1.193-0.968-2.16-2.159-2.16 c-1.193,0-2.16,0.967-2.16,2.16C28.8-15.367,29.767-14.4,30.96-14.4z"/><path id="path3147" fill="#231F20" d="M16.56-14.4c1.192,0,2.16-0.967,2.16-2.16c0-1.193-0.968-2.16-2.16-2.16c-1.193,0-2.16,0.967-2.16,2.16 C14.4-15.367,15.367-14.4,16.56-14.4z"/><path id="path3149" fill="#231F20" d="M9.36-7.201c1.192,0,2.16-0.967,2.16-2.16c0-1.191-0.968-2.158-2.16-2.158 c-1.193,0-2.16,0.967-2.16,2.158C7.2-8.168,8.167-7.201,9.36-7.201z"/><path id="path3151" fill="#231F20" d="M23.76-7.201c1.191,0,2.16-0.967,2.16-2.16c0-1.191-0.969-2.158-2.16-2.158 c-1.193,0-2.16,0.967-2.16,2.158C21.6-8.168,22.567-7.201,23.76-7.201z"/><path id="path3153" fill="#231F20" d="M9.36-21.602c1.192,0,2.16-0.967,2.16-2.158c0-1.193-0.968-2.16-2.16-2.16c-1.193,0-2.16,0.967-2.16,2.16 C7.2-22.568,8.167-21.602,9.36-21.602z"/><path id="path3155" fill="#231F20" d="M23.76-21.602c1.191,0,2.16-0.967,2.16-2.158c0-1.193-0.969-2.16-2.16-2.16 c-1.193,0-2.16,0.967-2.16,2.16C21.6-22.568,22.567-21.602,23.76-21.602z"/></g><g id="g3157"><path id="path3159" fill="#231F20" d="M2.16,0c1.191,0,2.159-0.967,2.159-2.16c0-1.193-0.968-2.16-2.159-2.16C0.967-4.32,0-3.354,0-2.16 C0-0.967,0.967,0,2.16,0z"/><path id="path3161" fill="#231F20" d="M2.16-14.4c1.191,0,2.159-0.967,2.159-2.16c0-1.193-0.968-2.16-2.159-2.16c-1.193,0-2.16,0.967-2.16,2.16 C0-15.367,0.967-14.4,2.16-14.4z"/></g><g id="g3163"><path id="path3165" fill="#231F20" d="M30.96-28.8c1.192,0,2.159-0.968,2.159-2.161c0-1.191-0.968-2.158-2.159-2.158 c-1.193,0-2.16,0.967-2.16,2.158C28.8-29.768,29.767-28.8,30.96-28.8z"/><path id="path3167" fill="#231F20" d="M16.56-28.8c1.192,0,2.16-0.968,2.16-2.161c0-1.191-0.968-2.158-2.16-2.158 c-1.193,0-2.16,0.967-2.16,2.158C14.4-29.768,15.367-28.8,16.56-28.8z"/></g><g id="g3169"><path id="path3171" fill="#231F20" d="M2.16-28.8c1.191,0,2.159-0.968,2.159-2.161c0-1.191-0.968-2.158-2.159-2.158 c-1.193,0-2.16,0.967-2.16,2.158C0-29.768,0.967-28.8,2.16-28.8z"/></g></g></pattern><g id="g3173" transform="translate(-20.823001,-34.468998)"><circle id="circle3175" cx="94.508" cy="97.784" r="63.315" d="m 157.823,97.783997 c 0,34.967903 -28.34709,63.315003 -63.314997,63.315003 -34.967908,0 -63.314998,-28.3471 -63.314998,-63.315003 0,-34.967909 28.34709,-63.314999 63.314998,-63.314999 34.967907,0 63.314997,28.34709 63.314997,63.314999 z" style="fill:#d2ccbb"/><circle id="circle3177" cx="94.508" cy="97.784" r="46.687" d="m 141.195,97.783997 c 0,25.784513 -20.90248,46.687003 -46.686997,46.687003 -25.784518,0 -46.687,-20.90249 -46.687,-46.687003 0,-25.784519 20.902482,-46.687001 46.687,-46.687001 25.784517,0 46.686997,20.902482 46.686997,46.687001 z" style="fill:#ea8691"/><path id="path3179" d="m 56.736,106.786 c 0,-25.784 20.902,-46.687 46.687,-46.687 10.684,0 20.499,3.628 28.366,9.666 -8.519,-11.317 -22.025,-18.668 -37.281,-18.668 -25.784,0 -46.687,20.902 -46.687,46.687 0,15.101 7.2,28.487 18.321,37.021 -5.88,-7.809 -9.406,-17.491 -9.406,-28.019 z" style="fill:#da7889"/><path id="path3181" d="M 187.082,311.817 83.335,204.926 c -2.714,-2.797 -3.671,-6.859 -2.489,-10.573 L 96.05,146.57 c 0.593,-1.864 1.641,-3.55 3.049,-4.907 l 46.366,-44.687 c 2.07,-1.995 4.832,-3.109 7.706,-3.109 h 33.913 v 217.95 z" style="fill:#d2ccbb"/><circle id="circle3183" cx="279.657" cy="97.784" r="63.315" d="m 342.97201,97.783997 c 0,34.967903 -28.34709,63.315003 -63.315,63.315003 -34.96791,0 -63.315,-28.3471 -63.315,-63.315003 0,-34.967909 28.34709,-63.314999 63.315,-63.314999 34.96791,0 63.315,28.34709 63.315,63.314999 z" style="fill:#e6e3df"/><circle id="circle3185" cx="279.657" cy="97.784" r="46.687" d="m 326.34401,97.783997 c 0,25.784513 -20.90248,46.687003 -46.687,46.687003 -25.78452,0 -46.687,-20.90249 -46.687,-46.687003 0,-25.784519 20.90248,-46.687001 46.687,-46.687001 25.78452,0 46.687,20.902482 46.687,46.687001 z" style="fill:#ea8691"/><path id="path3187" d="m 241.884,106.786 c 0,-25.784 20.902,-46.687 46.687,-46.687 10.684,0 20.499,3.628 28.366,9.666 -8.519,-11.317 -22.025,-18.668 -37.281,-18.668 -25.784,0 -46.687,20.902 -46.687,46.687 0,15.101 7.2,28.487 18.321,37.021 -5.879,-7.809 -9.406,-17.491 -9.406,-28.019 z" style="fill:#da7889"/><path id="path3189" d="m 158.235,264.274 c -0.219,0 -0.439,-0.041 -0.655,-0.129 -0.222,-0.088 -22.441,-9.038 -45.546,-10.947 -0.956,-0.078 -1.667,-0.916 -1.589,-1.872 0.081,-0.956 0.926,-1.645 1.874,-1.587 23.649,1.953 46.343,11.099 46.57,11.191 0.889,0.359 1.316,1.373 0.953,2.262 -0.273,0.675 -0.922,1.082 -1.607,1.082 z"/><path id="path3191" d="m 107.4,272.643 c -0.827,0 -1.56,-0.593 -1.709,-1.434 -0.164,-0.946 0.466,-1.845 1.411,-2.011 19.766,-3.476 50.046,-0.159 51.326,-0.017 0.953,0.109 1.638,0.966 1.533,1.919 -0.107,0.956 -0.944,1.648 -1.919,1.533 -0.309,-0.037 -31.063,-3.408 -50.339,-0.017 -0.103,0.021 -0.203,0.027 -0.303,0.027 z"/><path id="path3193" d="m 112.179,297.698 c -0.588,0 -1.163,-0.298 -1.489,-0.841 -0.495,-0.821 -0.231,-1.889 0.592,-2.384 20.21,-12.168 45.542,-17.36 46.61,-17.577 0.941,-0.19 1.855,0.421 2.045,1.36 0.188,0.939 -0.419,1.855 -1.36,2.045 -0.256,0.051 -25.822,5.297 -45.505,17.149 -0.28,0.166 -0.588,0.248 -0.893,0.248 z"/><path id="path3195" d="M 187.082,311.817 290.83,204.926 c 2.714,-2.797 3.671,-6.859 2.489,-10.573 L 278.115,146.57 c -0.593,-1.864 -1.641,-3.55 -3.049,-4.907 L 228.7,96.976 c -2.07,-1.995 -4.832,-3.109 -7.706,-3.109 h -33.913 v 217.95 z" style="fill:#e6e3df"/><path id="path3197" d="m 215.929,264.274 c -0.685,0 -1.334,-0.407 -1.607,-1.082 -0.363,-0.889 0.064,-1.902 0.953,-2.262 0.227,-0.092 22.923,-9.238 46.571,-11.191 0.953,-0.071 1.794,0.631 1.874,1.587 0.078,0.956 -0.632,1.794 -1.589,1.872 -23.104,1.909 -45.325,10.859 -45.547,10.947 -0.214,0.088 -0.436,0.129 -0.655,0.129 z"/><path id="path3199" d="m 266.765,272.643 c -0.1,0 -0.2,-0.007 -0.302,-0.027 -19.276,-3.378 -50.032,-0.017 -50.341,0.017 -0.948,0.112 -1.813,-0.577 -1.919,-1.533 -0.105,-0.953 0.58,-1.811 1.533,-1.919 1.278,-0.142 31.56,-3.456 51.328,0.017 0.944,0.166 1.575,1.065 1.411,2.011 -0.15,0.841 -0.882,1.434 -1.71,1.434 z"/><path id="path3201" d="m 261.987,297.698 c -0.305,0 -0.614,-0.081 -0.894,-0.248 -19.683,-11.852 -45.251,-17.098 -45.507,-17.149 -0.941,-0.19 -1.548,-1.106 -1.36,-2.045 0.19,-0.943 1.099,-1.55 2.045,-1.36 1.068,0.217 26.402,5.409 46.612,17.577 0.822,0.495 1.087,1.563 0.592,2.384 -0.325,0.542 -0.9,0.841 -1.488,0.841 z"/><path id="path3203" d="m 187.083,311.817 c 10.038,0 18.175,-10.636 18.175,-14.175 0,-3.539 -8.137,-14.175 -18.175,-14.175 -10.038,0 -18.175,10.636 -18.175,14.175 0.001,3.54 8.138,14.175 18.175,14.175 z" style="fill:#be3e48"/><path id="path3205" d="m 147.922,198.698 c -9.105,0 -16.512,-7.406 -16.512,-16.512 0,-1.438 1.167,-2.604 2.604,-2.604 1.438,0 2.604,1.167 2.604,2.604 0,6.233 5.07,11.303 11.303,11.303 6.231,0 11.301,-5.07 11.301,-11.303 0,-1.438 1.167,-2.604 2.604,-2.604 1.438,0 2.604,1.167 2.604,2.604 0.002,9.105 -7.404,16.512 -16.508,16.512 z" style="fill:#2a2828"/><path id="path3207" d="m 226.244,198.698 c -9.104,0 -16.51,-7.406 -16.51,-16.512 0,-1.438 1.167,-2.604 2.604,-2.604 1.438,0 2.604,1.167 2.604,2.604 0,6.233 5.07,11.303 11.301,11.303 6.231,0 11.301,-5.07 11.301,-11.303 0,-1.438 1.167,-2.604 2.604,-2.604 1.438,0 2.604,1.167 2.604,2.604 0.002,9.105 -7.405,16.512 -16.508,16.512 z" style="fill:#2a2828"/></g><path id="path3209" d="m 112.2,86.321002 c 40.354,-0.516 79.698,-11.809 118.469,-23.014 1.652,-0.477 3.398,-1.013 4.532,-2.305 2.997,-3.412 -0.36,-8.608 -3.778,-11.599 -14.884,-13.027 -33.64,-21.285 -53.093,-24.865 -19.453,-3.58 -39.587,-2.605 -58.948,1.438 -25.569001,5.339 -50.249001,16.195 -70.047001,33.236 -19.798,17.041 -34.467,40.484 -38.965,66.214998 2.642,-12.959 12.31,-23.75 23.926,-30.072998 11.616,-6.323 25.021,-8.637 38.233,-9.248 13.212,-0.611 26.446,0.384 39.671001,0.215 z" style="fill:#3b72b2"/><path id="path3211" d="m 112.2,86.321002 c 40.354,-0.516 79.698,-11.809 118.469,-23.014 1.652,-0.477 3.398,-1.013 4.532,-2.305 2.997,-3.412 -0.36,-8.608 -3.778,-11.599 -14.884,-13.027 -33.64,-21.285 -53.093,-24.865 -19.453,-3.58 -39.587,-2.605 -58.948,1.438 -25.569001,5.339 -50.249001,16.195 -70.047001,33.236 -19.798,17.041 -34.467,40.484 -38.965,66.214998 2.642,-12.959 12.31,-23.75 23.926,-30.072998 11.616,-6.323 25.021,-8.637 38.233,-9.248 13.212,-0.611 26.446,0.384 39.671001,0.215 z" style="fill:url(#pattern3227);fill-opacity:.25"/><path id="path3213" d="m 61.721999,109.289 c 0.975,5.174 -0.602,10.617 1.592,15.386 1.262,2.744 4.368,4.202 7.34,4.331 2.972,0.13 5.874,-0.828 8.708,-1.753 C 130.725,110.487 184.311,100.839 238.182,98.657002 c 3.526,-0.143 8.046,-1.093 8.585,-4.648 0.585,-3.856 -4.16,-6.111 -5.961,-9.55 -3.388,-6.471 4.541,-14.444 2.028,-21.318 -1.955,-5.35 -8.762,-6.509 -14.363,-6.653 -54.286,-1.394 -107.655,12.99 -160.144001,27.261 -2.753,0.748 -5.561,1.522 -7.933,3.133 -2.372,1.611 -4.271,4.238 -4.276,7.141 -0.01,5.878 4.516,9.492998 5.604,15.265998 z" style="fill:#aedeff"/><circle id="circle3215" cx="34.31" cy="151.353" r="13.487" transform="translate(-20.823001,-34.468998)" style="fill:#aedeff"/><path id="path3217" stroke-miterlimit="10" d="m 197.636,253.91 c -6.232,2.16 -12.7,3.642 -19.251,4.411 5.972,-1.714 9.738,-7.713 11.43,-13.691 1.692,-5.978 1.884,-12.312 3.707,-18.252 1.823,-5.939 5.901,-11.81 11.973,-13.126 6.862,-1.487 15.938,3.142 17.739,9.928 1.801,6.787 -2.885,14.95 -7.66,20.098 -4.775,5.148 -11.303,8.333 -17.938,10.632 z" style="fill:#e1f0ff;stroke:#e1f0ff;stroke-width:4;stroke-linecap:round;stroke-linejoin:round;stroke-miterlimit:10"/><path id="path3219" d="m 218.138,230.863 c -0.597,0.235 -1.36,0.228 -1.793,-0.245 -0.462,-0.505 -0.365,-1.283 -0.464,-1.96 -0.187,-1.276 -1.127,-2.286 -1.921,-3.303 -0.793,-1.017 -1.507,-2.303 -1.145,-3.54 0.404,-1.378 2.097,-2.084 3.491,-1.739 1.394,0.345 2.467,1.494 3.133,2.767 0.572,1.093 0.903,2.312 0.963,3.544 0.087,1.784 -0.601,3.822 -2.264,4.476 z" style="fill:#fff"/></svg>